<svg width="1200" height="1200" xmlns="http://www.w3.org/2000/svg">

 <metadata id="metadata62">image/svg+xml</metadata>
 <g>
  <title>background</title>
  <rect fill="none" id="canvas_background" height="402" width="582" y="-1" x="-1"/>
 </g>
 <g>
  <title>Layer 1</title>
  <path fill="white" id="path5643" d="m600.00001,0c-331.36946,0 -600.00001,268.6303 -600.00001,599.99999c0,331.36969 268.63032,600.00001 600.00001,600.00001c331.36946,0 599.99999,-268.63055 599.99999,-600.00001c0,-331.36969 -268.63053,-599.99999 -599.99999,-599.99999zm0,1069.5651c-259.36946,0 -469.56516,-210.26082 -469.56516,-469.56511c0,-259.30429 210.1957,-469.56516 469.56516,-469.56516c259.36946,0 469.56539,210.26087 469.56539,469.56516c0,259.30429 -210.19593,469.56511 -469.56539,469.56511zm117.39116,-720.65223l-234.78258,0l0,266.73914l-146.73913,0l264.13031,248.4783l264.13031,-248.4783l-146.73914,0l0,-266.73914l0.00023,0z"/>
 </g>
</svg>