<?xml version="1.0" encoding="UTF-8" standalone="no"?>
<!-- Created with Inkscape (https://www.inkscape.org/) -->

<svg
   xmlns:dc="https://purl.org/dc/elements/1.1/"
   xmlns:cc="https://creativecommons.org/ns#"
   xmlns:rdf="https://www.w3.org/1999/02/22-rdf-syntax-ns#"
   xmlns:svg="https://www.w3.org/2000/svg"
   xmlns="https://www.w3.org/2000/svg"
   xmlns:sodipodi="https://sodipodi.sourceforge.net/DTD/sodipodi-0.dtd"
   xmlns:inkscape="https://www.inkscape.org/namespaces/inkscape"
   width="2000"
   height="408.99356"
   viewBox="0 0 1999.9999 408.99356"
   id="svg2"
   version="1.1"
   inkscape:version="0.91 r13725"
   sodipodi:docname="undertalespaghettiproject.svg">
  <defs
     id="defs4" />
  <sodipodi:namedview
     id="base"
     pagecolor="#000000"
     bordercolor="#666666"
     borderopacity="1.0"
     inkscape:pageopacity="1"
     inkscape:pageshadow="2"
     inkscape:zoom="1"
     inkscape:cx="680.60633"
     inkscape:cy="148.56858"
     inkscape:document-units="px"
     inkscape:current-layer="layer1"
     showgrid="true"
     units="px"
     inkscape:window-width="1920"
     inkscape:window-height="1017"
     inkscape:window-x="-8"
     inkscape:window-y="2"
     inkscape:window-maximized="1"
     borderlayer="true"
     inkscape:showpageshadow="false"
     inkscape:snap-bbox="true">
    <inkscape:grid
       type="xygrid"
       id="grid4160"
       spacingx="19.647829"
       spacingy="21.347826"
       originx="17.999999"
       originy="182.987" />
  </sodipodi:namedview>
  <metadata
     id="metadata7">
    <rdf:RDF>
      <cc:Work
         rdf:about="">
        <dc:format>image/svg+xml</dc:format>
        <dc:type
           rdf:resource="https://purl.org/dc/dcmitype/StillImage" />
        <dc:title />
      </cc:Work>
    </rdf:RDF>
  </metadata>
  <g
     inkscape:label="Livello 1"
     inkscape:groupmode="layer"
     id="layer1"
     transform="translate(0,-643.36857)">
    <g
       id="g4492"
       transform="translate(0,12)">
      <path
         id="rect4162"
         transform="translate(-6.1035156e-5,643.36857)"
         d="m 60.695312,12.527344 0,21.349609 -21.347656,0 0,170.781247 21.347656,0 64.042968,0 128.08789,0 0,-64.04297 0,-128.087886 -85.39062,0 0,128.087886 -42.69727,0 0,-128.087886 -64.042968,0 z"
         style="opacity:1;fill:#ffffff;fill-opacity:0.90507729;fill-rule:evenodd;stroke:none;stroke-width:2;stroke-linecap:butt;stroke-linejoin:miter;stroke-miterlimit:4;stroke-dasharray:none;stroke-opacity:0"
         inkscape:connector-curvature="0" />
      <path
         id="rect4170"
         transform="translate(-6.1035156e-5,643.36857)"
         d="m 274.17383,12.527344 0,192.130856 42.69531,0 0,-106.738278 21.34766,0 0,42.695308 21.34765,0 0,21.34766 21.34766,0 0,21.34766 21.34961,0 0,21.34765 85.39062,0 0,-192.130856 -85.39062,0 0,85.392578 -21.34961,0 0,-42.695313 -21.34766,0 0,-42.697265 -42.69531,0 -42.69531,0 z"
         style="opacity:1;fill:#ffffff;fill-opacity:0.90507729;fill-rule:evenodd;stroke:none;stroke-width:2;stroke-linecap:butt;stroke-linejoin:miter;stroke-miterlimit:4;stroke-dasharray:none;stroke-opacity:0"
         inkscape:connector-curvature="0" />
      <path
         id="rect4182"
         transform="translate(-6.1035156e-5,643.36857)"
         d="m 530.34766,12.527344 0,21.349609 -21.34766,0 0,170.781247 21.34766,0 149.43554,0 0,-21.34765 21.34766,0 0,-149.433597 -21.34766,0 0,-21.349609 -64.04492,0 -42.69531,0 -42.69531,0 z m 42.69531,42.697265 21.34765,0 0,21.347657 21.34766,0 0,64.042964 -21.34766,0 0,21.34766 -21.34765,0 0,-106.738281 z"
         style="opacity:1;fill:#ffffff;fill-opacity:0.90507729;fill-rule:evenodd;stroke:none;stroke-width:2;stroke-linecap:butt;stroke-linejoin:miter;stroke-miterlimit:4;stroke-dasharray:none;stroke-opacity:0"
         inkscape:connector-curvature="0" />
      <path
         id="rect4200"
         transform="translate(-6.1035156e-5,643.36857)"
         d="m 743.82617,12.527344 0,21.349609 -21.34765,0 0,170.781247 21.34765,0 64.04297,0 85.39258,0 0,-64.04297 -85.39258,0 0,-21.34765 64.04297,0 0,-21.347658 -64.04297,0 0,-21.347656 85.39258,0 0,-64.044922 -85.39258,0 -64.04297,0 z"
         style="opacity:1;fill:#ffffff;fill-opacity:0.90507729;fill-rule:evenodd;stroke:none;stroke-width:2;stroke-linecap:butt;stroke-linejoin:miter;stroke-miterlimit:4;stroke-dasharray:none;stroke-opacity:0"
         inkscape:connector-curvature="0" />
      <path
         style="opacity:1;fill:#ffffff;fill-opacity:0.90507729;fill-rule:evenodd;stroke:none;stroke-width:2;stroke-linecap:butt;stroke-linejoin:miter;stroke-miterlimit:4;stroke-dasharray:none;stroke-opacity:0"
         d="m 914.60938,12.527344 0,192.130856 64.04296,0 0,-42.69531 21.34766,0 0,21.34766 42.6953,0 0,21.34765 85.3926,0 0,-21.34765 0,-21.34766 -64.0449,0 0,-21.34766 42.6953,0 21.3496,0 0,-106.738277 -21.3496,0 0,-21.349609 -128.08596,0 -64.04296,0 z M 1000,55.224609 l 21.3477,0 0,21.347657 21.3476,0 0,-21.347657 21.3477,0 0,42.695313 -64.043,0 0,-42.695313 z"
         transform="translate(-6.1035156e-5,643.36857)"
         id="rect4210"
         inkscape:connector-curvature="0" />
      <path
         id="rect4228"
         transform="translate(-6.1035156e-5,643.36857)"
         d="m 1170.7832,12.527344 0,21.349609 -21.3477,0 0,64.042969 64.043,0 0,106.738278 85.3906,0 0,-106.738278 64.045,0 0,-64.042969 0,-21.349609 -192.1309,0 z"
         style="opacity:1;fill:#ffffff;fill-opacity:0.90507729;fill-rule:evenodd;stroke:none;stroke-width:2;stroke-linecap:butt;stroke-linejoin:miter;stroke-miterlimit:4;stroke-dasharray:none;stroke-opacity:0"
         inkscape:connector-curvature="0" />
      <path
         id="rect4234"
         transform="translate(-6.1035156e-5,643.36857)"
         d="m 1405.6094,12.527344 0,21.349609 -21.3477,0 0,170.781247 64.043,0 0,-64.04297 64.043,0 0,64.04297 64.0429,0 0,-106.738278 0,-64.042969 0,-21.349609 -170.7812,0 z m 42.6953,85.392578 64.043,0 0,21.347658 -64.043,0 0,-21.347658 z"
         style="opacity:1;fill:#ffffff;fill-opacity:0.90507729;fill-rule:evenodd;stroke:none;stroke-width:2;stroke-linecap:butt;stroke-linejoin:miter;stroke-miterlimit:4;stroke-dasharray:none;stroke-opacity:0"
         inkscape:connector-curvature="0" />
      <path
         id="rect4246"
         transform="translate(-6.1035156e-5,643.36857)"
         d="m 1619.0879,12.527344 0,21.349609 -21.3496,0 0,170.781247 85.3926,0 85.3906,0 0,-64.04297 -85.3906,0 0,-106.738277 0,-21.349609 -64.043,0 z"
         style="opacity:1;fill:#ffffff;fill-opacity:0.90507729;fill-rule:evenodd;stroke:none;stroke-width:2;stroke-linecap:butt;stroke-linejoin:miter;stroke-miterlimit:4;stroke-dasharray:none;stroke-opacity:0"
         inkscape:connector-curvature="0" />
      <path
         id="rect4252"
         transform="translate(-6.1035156e-5,643.36857)"
         d="m 1811.2168,12.527344 0,21.349609 -21.3477,0 0,170.781247 85.3926,0 85.3906,0 0,-64.04297 -85.3906,0 0,-21.34765 64.043,0 0,-21.347658 -64.043,0 0,-21.347656 85.3906,0 0,-64.044922 -85.3906,0 -64.0449,0 z"
         style="opacity:1;fill:#ffffff;fill-opacity:0.90507729;fill-rule:evenodd;stroke:none;stroke-width:2;stroke-linecap:butt;stroke-linejoin:miter;stroke-miterlimit:4;stroke-dasharray:none;stroke-opacity:0"
         inkscape:connector-curvature="0" />
      <rect
         y="762.63599"
         x="146.0869"
         height="21.347826"
         width="21.347826"
         id="rect4262"
         style="opacity:1;fill:#7f7f7f;fill-opacity:0;fill-rule:evenodd;stroke:none;stroke-width:2;stroke-linecap:butt;stroke-linejoin:miter;stroke-miterlimit:4;stroke-dasharray:none;stroke-opacity:0" />
      <rect
         y="655.89685"
         x="39.347763"
         height="21.347826"
         width="21.347826"
         id="rect4286"
         style="opacity:1;fill:#7f7f7f;fill-opacity:1;fill-rule:evenodd;stroke:none;stroke-width:2;stroke-linecap:butt;stroke-linejoin:miter;stroke-miterlimit:4;stroke-dasharray:none;stroke-opacity:0" />
      <rect
         y="762.63599"
         x="146.0869"
         height="21.347826"
         width="21.347826"
         id="rect4288"
         style="opacity:1;fill:#7f7f7f;fill-opacity:1;fill-rule:evenodd;stroke:none;stroke-width:2;stroke-linecap:butt;stroke-linejoin:miter;stroke-miterlimit:4;stroke-dasharray:none;stroke-opacity:0" />
      <rect
         y="741.28815"
         x="316.86951"
         height="21.347826"
         width="21.347826"
         id="rect4290"
         style="opacity:1;fill:#7f7f7f;fill-opacity:1;fill-rule:evenodd;stroke:none;stroke-width:2;stroke-linecap:butt;stroke-linejoin:miter;stroke-miterlimit:4;stroke-dasharray:none;stroke-opacity:0" />
      <rect
         y="826.6795"
         x="380.91299"
         height="21.347826"
         width="21.347826"
         id="rect4292"
         style="opacity:1;fill:#7f7f7f;fill-opacity:1;fill-rule:evenodd;stroke:none;stroke-width:2;stroke-linecap:butt;stroke-linejoin:miter;stroke-miterlimit:4;stroke-dasharray:none;stroke-opacity:0" />
      <rect
         y="677.24469"
         x="359.56516"
         height="21.347826"
         width="21.347826"
         id="rect4294"
         style="opacity:1;fill:#7f7f7f;fill-opacity:1;fill-rule:evenodd;stroke:none;stroke-width:2;stroke-linecap:butt;stroke-linejoin:miter;stroke-miterlimit:4;stroke-dasharray:none;stroke-opacity:0" />
      <rect
         y="655.89685"
         x="508.99994"
         height="21.347826"
         width="21.347826"
         id="rect4296"
         style="opacity:1;fill:#7f7f7f;fill-opacity:1;fill-rule:evenodd;stroke:none;stroke-width:2;stroke-linecap:butt;stroke-linejoin:miter;stroke-miterlimit:4;stroke-dasharray:none;stroke-opacity:0" />
      <rect
         y="698.59253"
         x="573.0434"
         height="21.347826"
         width="21.347826"
         id="rect4302"
         style="opacity:1;fill:#7f7f7f;fill-opacity:1;fill-rule:evenodd;stroke:none;stroke-width:2;stroke-linecap:butt;stroke-linejoin:miter;stroke-miterlimit:4;stroke-dasharray:none;stroke-opacity:0" />
      <rect
         y="762.63599"
         x="594.39124"
         height="21.347826"
         width="21.347826"
         id="rect4304"
         style="opacity:1;fill:#7f7f7f;fill-opacity:1;fill-rule:evenodd;stroke:none;stroke-width:2;stroke-linecap:butt;stroke-linejoin:miter;stroke-miterlimit:4;stroke-dasharray:none;stroke-opacity:0" />
      <rect
         y="655.89685"
         x="722.47821"
         height="21.347826"
         width="21.347826"
         id="rect4306"
         style="opacity:1;fill:#7f7f7f;fill-opacity:1;fill-rule:evenodd;stroke:none;stroke-width:2;stroke-linecap:butt;stroke-linejoin:miter;stroke-miterlimit:4;stroke-dasharray:none;stroke-opacity:0" />
      <rect
         y="741.28815"
         x="871.91296"
         height="21.347826"
         width="21.347826"
         id="rect4308"
         style="opacity:1;fill:#7f7f7f;fill-opacity:1;fill-rule:evenodd;stroke:none;stroke-width:2;stroke-linecap:butt;stroke-linejoin:miter;stroke-miterlimit:4;stroke-dasharray:none;stroke-opacity:0" />
      <rect
         y="805.33167"
         x="978.6521"
         height="21.347826"
         width="21.347826"
         id="rect4310"
         style="opacity:1;fill:#7f7f7f;fill-opacity:1;fill-rule:evenodd;stroke:none;stroke-width:2;stroke-linecap:butt;stroke-linejoin:miter;stroke-miterlimit:4;stroke-dasharray:none;stroke-opacity:0" />
      <rect
         y="783.98383"
         x="1064.0435"
         height="21.347826"
         width="21.347826"
         id="rect4312"
         style="opacity:1;fill:#7f7f7f;fill-opacity:1;fill-rule:evenodd;stroke:none;stroke-width:2;stroke-linecap:butt;stroke-linejoin:miter;stroke-miterlimit:4;stroke-dasharray:none;stroke-opacity:0" />
      <rect
         y="655.89685"
         x="1106.7391"
         height="21.347826"
         width="21.347826"
         id="rect4314"
         style="opacity:1;fill:#7f7f7f;fill-opacity:1;fill-rule:evenodd;stroke:none;stroke-width:2;stroke-linecap:butt;stroke-linejoin:miter;stroke-miterlimit:4;stroke-dasharray:none;stroke-opacity:0" />
      <rect
         y="655.89685"
         x="1149.4348"
         height="21.347826"
         width="21.347826"
         id="rect4316"
         style="opacity:1;fill:#7f7f7f;fill-opacity:1;fill-rule:evenodd;stroke:none;stroke-width:2;stroke-linecap:butt;stroke-linejoin:miter;stroke-miterlimit:4;stroke-dasharray:none;stroke-opacity:0" />
      <rect
         y="655.89685"
         x="1384.2609"
         height="21.347826"
         width="21.347826"
         id="rect4318"
         style="opacity:1;fill:#7f7f7f;fill-opacity:1;fill-rule:evenodd;stroke:none;stroke-width:2;stroke-linecap:butt;stroke-linejoin:miter;stroke-miterlimit:4;stroke-dasharray:none;stroke-opacity:0" />
      <rect
         y="741.28815"
         x="1448.3043"
         height="21.347826"
         width="21.347826"
         id="rect4320"
         style="opacity:1;fill:#7f7f7f;fill-opacity:1;fill-rule:evenodd;stroke:none;stroke-width:2;stroke-linecap:butt;stroke-linejoin:miter;stroke-miterlimit:4;stroke-dasharray:none;stroke-opacity:0" />
      <rect
         y="783.98383"
         x="1491"
         height="21.347826"
         width="21.347826"
         id="rect4322"
         style="opacity:1;fill:#7f7f7f;fill-opacity:1;fill-rule:evenodd;stroke:none;stroke-width:2;stroke-linecap:butt;stroke-linejoin:miter;stroke-miterlimit:4;stroke-dasharray:none;stroke-opacity:0" />
      <rect
         y="655.89685"
         x="1597.7391"
         height="21.347826"
         width="21.347826"
         id="rect4324"
         style="opacity:1;fill:#7f7f7f;fill-opacity:1;fill-rule:evenodd;stroke:none;stroke-width:2;stroke-linecap:butt;stroke-linejoin:miter;stroke-miterlimit:4;stroke-dasharray:none;stroke-opacity:0" />
      <rect
         y="655.89685"
         x="1789.8695"
         height="21.347826"
         width="21.347826"
         id="rect4326"
         style="opacity:1;fill:#7f7f7f;fill-opacity:1;fill-rule:evenodd;stroke:none;stroke-width:2;stroke-linecap:butt;stroke-linejoin:miter;stroke-miterlimit:4;stroke-dasharray:none;stroke-opacity:0" />
      <rect
         y="741.28815"
         x="1939.3043"
         height="21.347826"
         width="21.347826"
         id="rect4328"
         style="opacity:1;fill:#7f7f7f;fill-opacity:1;fill-rule:evenodd;stroke:none;stroke-width:2;stroke-linecap:butt;stroke-linejoin:miter;stroke-miterlimit:4;stroke-dasharray:none;stroke-opacity:0" />
      <path
         style="opacity:1;fill:#ce2b37;fill-opacity:1;fill-rule:evenodd;stroke:none;stroke-width:2;stroke-linecap:butt;stroke-linejoin:miter;stroke-miterlimit:4;stroke-dasharray:none;stroke-opacity:0"
         d="m 1000,55.224609 0,42.695313 21.3477,0 0,21.347658 21.3476,0 0,-21.347658 21.3477,0 0,-42.695313 -21.3477,0 0,21.347657 -21.3476,0 0,-21.347657 -21.3477,0 z"
         transform="translate(-6.1035156e-5,643.36857)"
         id="rect4332"
         inkscape:connector-curvature="0" />
      <rect
         style="opacity:1;fill:#009246;fill-opacity:1;fill-rule:evenodd;stroke:none;stroke-width:2;stroke-linecap:butt;stroke-linejoin:miter;stroke-miterlimit:4;stroke-dasharray:none;stroke-opacity:0"
         id="rect4240"
         width="640.43475"
         height="21.347826"
         x="39.347763"
         y="875.37512" />
      <rect
         style="opacity:1;fill:#ffffff;fill-opacity:1;fill-rule:evenodd;stroke:none;stroke-width:2;stroke-linecap:butt;stroke-linejoin:miter;stroke-miterlimit:4;stroke-dasharray:none;stroke-opacity:0"
         id="rect4242"
         width="619.08698"
         height="21.347826"
         x="679.78253"
         y="875.37512" />
      <rect
         style="opacity:1;fill:#ce2b37;fill-opacity:1;fill-rule:evenodd;stroke:none;stroke-width:2;stroke-linecap:butt;stroke-linejoin:miter;stroke-miterlimit:4;stroke-dasharray:none;stroke-opacity:0"
         id="rect4244"
         width="661.78259"
         height="21.347826"
         x="1298.8695"
         y="875.37512" />
    </g>
    <g
       transform="matrix(2.1072125,0,0,2.1072125,-334.58581,283.16874)"
       style="font-style:normal;font-weight:normal;font-size:40px;line-height:125%;font-family:sans-serif;letter-spacing:0px;word-spacing:0px;fill:#ffffff;fill-opacity:1;stroke:none;stroke-width:1px;stroke-linecap:butt;stroke-linejoin:miter;stroke-opacity:1"
       id="flowRoot4246">
      <path
         d="m 312.7168,352.7333 0,-11.25 11.25,0 0,11.25 11.25,0 0,-16.875 -16.875,0 0,-5.625 -5.625,0 0,-16.875 5.625,0 0,-5.625 22.5,0 0,5.625 5.625,0 0,11.25 -11.25,0 0,-11.25 -11.25,0 0,16.875 16.875,0 0,5.625 5.625,0 0,16.875 -5.625,0 0,5.625 -22.5,0 0,-5.625 -5.625,0 z"
         style="font-style:normal;font-variant:normal;font-weight:normal;font-stretch:normal;font-size:90px;font-family:'Determination Sans Web';-inkscape-font-specification:'Determination Sans Web';fill:#ffffff;fill-opacity:1"
         id="path4183" />
      <path
         d="m 352.0918,358.3583 0,-50.625 28.125,0 0,5.625 5.625,0 0,16.875 -5.625,0 0,5.625 -16.875,0 0,22.5 -11.25,0 z m 11.25,-28.125 11.25,0 0,-16.875 -11.25,0 0,16.875 z"
         style="font-style:normal;font-variant:normal;font-weight:normal;font-stretch:normal;font-size:90px;font-family:'Determination Sans Web';-inkscape-font-specification:'Determination Sans Web';fill:#ffffff;fill-opacity:1"
         id="path4185" />
      <path
         d="m 391.4668,358.3583 0,-45 5.625,0 0,-5.625 22.5,0 0,5.625 5.625,0 0,45 -11.25,0 0,-16.875 -11.25,0 0,16.875 -11.25,0 z m 11.25,-22.5 11.25,0 0,-22.5 -11.25,0 0,22.5 z"
         style="font-style:normal;font-variant:normal;font-weight:normal;font-stretch:normal;font-size:90px;font-family:'Determination Sans Web';-inkscape-font-specification:'Determination Sans Web';fill:#ffffff;fill-opacity:1"
         id="path4187" />
      <path
         d="m 430.8418,352.7333 0,-39.375 5.625,0 0,-5.625 22.5,0 0,5.625 5.625,0 0,11.25 -11.25,0 0,-11.25 -11.25,0 0,39.375 11.25,0 0,-16.875 -5.625,0 0,-5.625 16.875,0 0,22.5 -5.625,0 0,5.625 -22.5,0 0,-5.625 -5.625,0 z"
         style="font-style:normal;font-variant:normal;font-weight:normal;font-stretch:normal;font-size:90px;font-family:'Determination Sans Web';-inkscape-font-specification:'Determination Sans Web';fill:#ffffff;fill-opacity:1"
         id="path4189" />
      <path
         d="m 470.2168,358.3583 0,-50.625 11.25,0 0,22.5 11.25,0 0,-22.5 11.25,0 0,50.625 -11.25,0 0,-22.5 -11.25,0 0,22.5 -11.25,0 z"
         style="font-style:normal;font-variant:normal;font-weight:normal;font-stretch:normal;font-size:90px;font-family:'Determination Sans Web';-inkscape-font-specification:'Determination Sans Web';fill:#ffffff;fill-opacity:1"
         id="path4191" />
      <path
         d="m 509.5918,358.3583 0,-50.625 33.75,0 0,5.625 -22.5,0 0,16.875 16.875,0 0,5.625 -16.875,0 0,16.875 22.5,0 0,5.625 -33.75,0 z"
         style="font-style:normal;font-variant:normal;font-weight:normal;font-stretch:normal;font-size:90px;font-family:'Determination Sans Web';-inkscape-font-specification:'Determination Sans Web';fill:#ffffff;fill-opacity:1"
         id="path4193" />
      <path
         d="m 548.9668,313.3583 0,-5.625 33.75,0 0,5.625 -11.25,0 0,45 -11.25,0 0,-45 -11.25,0 z"
         style="font-style:normal;font-variant:normal;font-weight:normal;font-stretch:normal;font-size:90px;font-family:'Determination Sans Web';-inkscape-font-specification:'Determination Sans Web';fill:#ffffff;fill-opacity:1"
         id="path4195" />
      <path
         d="m 588.3418,313.3583 0,-5.625 33.75,0 0,5.625 -11.25,0 0,45 -11.25,0 0,-45 -11.25,0 z"
         style="font-style:normal;font-variant:normal;font-weight:normal;font-stretch:normal;font-size:90px;font-family:'Determination Sans Web';-inkscape-font-specification:'Determination Sans Web';fill:#ffffff;fill-opacity:1"
         id="path4197" />
      <path
         d="m 627.7168,358.3583 0,-5.625 11.25,0 0,-39.375 -11.25,0 0,-5.625 33.75,0 0,5.625 -11.25,0 0,39.375 11.25,0 0,5.625 -33.75,0 z"
         style="font-style:normal;font-variant:normal;font-weight:normal;font-stretch:normal;font-size:90px;font-family:'Determination Sans Web';-inkscape-font-specification:'Determination Sans Web';fill:#ffffff;fill-opacity:1"
         id="path4199" />
      <path
         d="m 683.9668,358.3583 0,-50.625 28.125,0 0,5.625 5.625,0 0,16.875 -5.625,0 0,5.625 -16.875,0 0,22.5 -11.25,0 z m 11.25,-28.125 11.25,0 0,-16.875 -11.25,0 0,16.875 z"
         style="font-style:normal;font-variant:normal;font-weight:normal;font-stretch:normal;font-size:90px;font-family:'Determination Sans Web';-inkscape-font-specification:'Determination Sans Web';fill:#ffffff;fill-opacity:1"
         id="path4201" />
      <path
         d="m 723.3418,358.3583 0,-50.625 28.125,0 0,5.625 5.625,0 0,16.875 -5.625,0 0,5.625 5.625,0 0,22.5 -11.25,0 0,-22.5 -11.25,0 0,22.5 -11.25,0 z m 11.25,-28.125 11.25,0 0,-16.875 -11.25,0 0,16.875 z"
         style="font-style:normal;font-variant:normal;font-weight:normal;font-stretch:normal;font-size:90px;font-family:'Determination Sans Web';-inkscape-font-specification:'Determination Sans Web';fill:#ffffff;fill-opacity:1"
         id="path4203" />
      <path
         d="m 762.7168,352.7333 0,-39.375 5.625,0 0,-5.625 22.5,0 0,5.625 5.625,0 0,39.375 -5.625,0 0,5.625 -22.5,0 0,-5.625 -5.625,0 z m 11.25,0 11.25,0 0,-39.375 -11.25,0 0,39.375 z"
         style="font-style:normal;font-variant:normal;font-weight:normal;font-stretch:normal;font-size:90px;font-family:'Determination Sans Web';-inkscape-font-specification:'Determination Sans Web';fill:#ffffff;fill-opacity:1"
         id="path4205" />
      <path
         d="m 802.0918,352.7333 0,-11.25 11.25,0 0,11.25 11.25,0 0,-39.375 -11.25,0 0,-5.625 22.5,0 0,45 -5.625,0 0,5.625 -22.5,0 0,-5.625 -5.625,0 z"
         style="font-style:normal;font-variant:normal;font-weight:normal;font-stretch:normal;font-size:90px;font-family:'Determination Sans Web';-inkscape-font-specification:'Determination Sans Web';fill:#ffffff;fill-opacity:1"
         id="path4207" />
      <path
         d="m 841.4668,358.3583 0,-50.625 33.75,0 0,5.625 -22.5,0 0,16.875 16.875,0 0,5.625 -16.875,0 0,16.875 22.5,0 0,5.625 -33.75,0 z"
         style="font-style:normal;font-variant:normal;font-weight:normal;font-stretch:normal;font-size:90px;font-family:'Determination Sans Web';-inkscape-font-specification:'Determination Sans Web';fill:#ffffff;fill-opacity:1"
         id="path4209" />
      <path
         d="m 880.8418,352.7333 0,-39.375 5.625,0 0,-5.625 22.5,0 0,5.625 5.625,0 0,11.25 -11.25,0 0,-11.25 -11.25,0 0,39.375 11.25,0 0,-11.25 11.25,0 0,11.25 -5.625,0 0,5.625 -22.5,0 0,-5.625 -5.625,0 z"
         style="font-style:normal;font-variant:normal;font-weight:normal;font-stretch:normal;font-size:90px;font-family:'Determination Sans Web';-inkscape-font-specification:'Determination Sans Web';fill:#ffffff;fill-opacity:1"
         id="path4211" />
      <path
         d="m 920.2168,313.3583 0,-5.625 33.75,0 0,5.625 -11.25,0 0,45 -11.25,0 0,-45 -11.25,0 z"
         style="font-style:normal;font-variant:normal;font-weight:normal;font-stretch:normal;font-size:90px;font-family:'Determination Sans Web';-inkscape-font-specification:'Determination Sans Web';fill:#ffffff;fill-opacity:1"
         id="path4213" />
    </g>
  </g>
</svg>
