<svg width="512" height="512" xmlns="http://www.w3.org/2000/svg">

 <g>
  <title>background</title>
  <rect fill="none" id="canvas_background" height="514" width="514" y="-1" x="-1"/>
 </g>
 <g>
  <title>Layer 1</title>
  <g id="svg_1"/>
  <path id="svg_2" fill="#222222" d="m267.49,198.492l0,157.215c0,13.589 0.778,23.572 2.345,29.952c3.134,12.943 10.281,17.193 18.381,23.88c15.155,12.544 63.222,24.146 96.533,-3.451l4.628,52.91c-13.824,16.435 -90.819,28.743 -127.068,22.498c-24.392,-4.26 -46.09,-7.045 -63.898,-21.094c-16.947,-13.373 -26.89,-34.11 -29.798,-62.238c-0.891,-7.67 -1.321,-23.49 -1.321,-47.431l0,-152.238l-44.667,0.645l0,-44.841c31.355,-3.277 87.368,-42.567 98.427,-125.43l46.438,0l1.178,117.401l101.161,0.645l-1.147,52.234l-101.192,-0.655l0,-0.002z"/>
 </g>
</svg>